<?xml version="1.0" encoding="utf-8"?>
<!-- Generator: Adobe Illustrator 25.0.1, SVG Export Plug-In . SVG Version: 6.00 Build 0)  -->
<svg version="1.1" id="레이어_1" xmlns="http://www.w3.org/2000/svg" xmlns:xlink="http://www.w3.org/1999/xlink" x="0px"
	 y="0px" viewBox="0 0 208 50" style="enable-background:new 0 0 208 50;" xml:space="preserve">
<style type="text/css">
	.st0{fill:none;}
	.st1{fill:#FFFFFF;stroke:#E5E5E5;}
	.st2{fill:#333333;}
	.st3{fill:#080808;}
	.st4{fill:#999999;}
	.st5{fill:url(#사각형_411_1_);}
	.st6{fill:#FDFBFD;}
	.st7{fill:#FEFEFE;}
</style>
<g id="그룹_134" transform="translate(-2383 1664)">
	<g id="사각형_413" transform="translate(2383 -1664)">
		<path class="st0" d="M4,0h200c2.2,0,4,1.8,4,4v42c0,2.2-1.8,4-4,4H4c-2.2,0-4-1.8-4-4V4C0,1.8,1.8,0,4,0z"/>
		<path class="st1" d="M4,0.5h200c1.9,0,3.5,1.6,3.5,3.5v42c0,1.9-1.6,3.5-3.5,3.5H4c-1.9,0-3.5-1.6-3.5-3.5V4
			C0.5,2.1,2.1,0.5,4,0.5z"/>
	</g>
	<path id="패스_13173" class="st2" d="M2496.1-1632.3v-7.1c0-0.3,0.1-0.3,0.3-0.3c1.8,0,3.5,0,5.3,0c2.6-0.1,4.7,2,4.8,4.6
		c0,0.3,0,0.6-0.1,1c-0.2,2.1-1.7,3.7-3.7,4.1c-0.5,0.1-0.9,0.1-1.4,0.1h-2.7c-0.2,0-0.3,0.1-0.3,0.3v4.4c0,0.3,0,0.4-0.3,0.4
		c-0.5,0-1.1,0-1.6,0c-0.3,0-0.3-0.1-0.3-0.3L2496.1-1632.3z M2500-1631.9h1.4c1.1,0,2.1-0.7,2.5-1.7c0.1-0.4,0.2-0.9,0.2-1.3
		c0.1-1.4-1-2.6-2.5-2.7c-1-0.1-2-0.1-3,0c-0.2,0-0.2,0.1-0.2,0.2v5.4c0,0.2,0.1,0.2,0.2,0.2
		C2499.1-1631.9,2499.6-1631.9,2500-1631.9z"/>
	<path id="패스_13174" class="st2" d="M2448-1625c-0.3,0-0.8,0.2-1.1-0.1c-0.3-0.2-0.3-0.7-0.4-1.1c-0.3-0.9-0.6-1.7-0.9-2.6
		c-0.1-0.2-0.2-0.3-0.3-0.3h-5.1c-0.2,0-0.3,0.1-0.3,0.3c-0.4,1.1-0.8,2.3-1.2,3.5c0,0.2-0.2,0.3-0.4,0.3c-0.6,0-1.2,0-1.8,0
		c-0.3,0-0.3-0.1-0.2-0.3c1.4-3.8,2.7-7.5,4.1-11.2c0.3-1,0.7-2,1.1-3c0-0.2,0.2-0.3,0.4-0.3h1.9c0.2,0,0.3,0.1,0.4,0.2l5.1,14.2
		c0.1,0.3,0,0.3-0.2,0.3C2448.7-1625,2448.3-1625,2448-1625z M2442.7-1637.3c-0.7,2.1-1.4,4.2-2.1,6.3c-0.1,0.3,0.1,0.2,0.2,0.2h3.8
		c0.3,0,0.3,0,0.2-0.3c-0.5-1.4-0.9-2.8-1.4-4.1C2443.2-1635.9,2443-1636.6,2442.7-1637.3L2442.7-1637.3z"/>
	<path id="패스_13175" class="st2" d="M2527.1-1626.7c-1.3,2.5-5.5,2.6-7.2-0.3c-0.7-1.2-0.9-2.6-0.8-4c0-1.2,0.5-2.4,1.2-3.4
		c1.5-1.8,4.1-2.1,5.9-0.6c0.1,0.1,0.1,0.1,0.2,0.2c0.2,0.2,0.3,0.5,0.5,0.7c0.1-0.1,0-0.2,0-0.3v-5.1c0-0.3,0-0.3,0.3-0.3
		c0.5,0,1.1,0,1.6,0c0.3,0,0.3,0.1,0.3,0.3v14.1c0,0.3-0.1,0.4-0.4,0.3c-0.5,0-1,0-1.6,0c-0.2,0-0.3-0.1-0.3-0.3
		C2527.2-1625.7,2527.2-1626.2,2527.1-1626.7z M2527.1-1630.4c0-0.2,0-0.5,0-0.7c0-0.3-0.1-0.6-0.2-0.8c-0.3-1.1-1.3-1.9-2.5-2
		c-1.1,0-2.1,0.6-2.5,1.6c-0.6,1.3-0.6,2.8,0.1,4.1c0.4,0.9,1.4,1.5,2.4,1.4c1,0,1.9-0.6,2.3-1.4
		C2527-1628.9,2527.2-1629.6,2527.1-1630.4L2527.1-1630.4z"/>
	<path id="패스_13176" class="st2" d="M2465-1633.9c0.3-0.6,0.8-1.1,1.4-1.4c2-1.1,4.6-0.4,5.8,1.6c1.2,2.1,1.2,4.7-0.1,6.8
		c-1.2,2-3.8,2.6-5.7,1.5c-0.1-0.1-0.2-0.1-0.3-0.2c-0.4-0.3-0.7-0.7-0.9-1.1c-0.1,0.1,0,0.2,0,0.3v4.7c0,0.2,0,0.3-0.3,0.3
		c-0.5,0-1.1,0-1.6,0c-0.3,0-0.3-0.1-0.3-0.3v-13.7c0-0.3,0.1-0.3,0.3-0.3c0.5,0,1,0,1.6,0c0.2,0,0.3,0.1,0.3,0.3
		C2465-1635,2465-1634.5,2465-1633.9z M2470.7-1630.6c0-0.5-0.1-1-0.3-1.5c-0.3-0.9-1.1-1.6-2-1.8c-1-0.2-2.1,0.2-2.6,1.1
		c-0.9,1.5-0.9,3.4,0,4.9c0.8,1.2,2.5,1.5,3.6,0.6c0.2-0.2,0.4-0.3,0.6-0.6C2470.5-1628.6,2470.7-1629.6,2470.7-1630.6
		L2470.7-1630.6z"/>
	<path id="패스_13177" class="st2" d="M2453.2-1626.7v5c0,0.3,0,0.4-0.3,0.3c-0.5,0-1.1,0-1.6,0c-0.3,0-0.3-0.1-0.3-0.3v-13.7
		c0-0.3,0.1-0.3,0.3-0.3c0.5,0,1.1,0,1.6,0c0.2,0,0.2,0,0.2,0.2v1.4c0.1,0,0.1-0.1,0.2-0.1c0.8-1.2,2.3-1.9,3.8-1.6
		c1.7,0.1,3.2,1.4,3.6,3c0.7,1.9,0.5,3.9-0.4,5.7c-1.1,2.1-3.7,2.8-5.8,1.7c-0.1-0.1-0.2-0.1-0.3-0.2c-0.2-0.2-0.4-0.3-0.6-0.5
		C2453.5-1626.2,2453.4-1626.5,2453.2-1626.7z M2453.2-1630.3c0,0.6,0.1,1.2,0.3,1.7c0.3,1.1,1.3,1.8,2.4,1.9
		c1.1,0.1,2.2-0.6,2.6-1.7c0.5-1.3,0.5-2.7-0.1-3.9c-0.4-1-1.4-1.6-2.4-1.5c-1,0-1.9,0.6-2.4,1.5
		C2453.3-1631.8,2453.1-1631,2453.2-1630.3L2453.2-1630.3z"/>
	<path id="패스_13178" class="st2" d="M2549.4-1626.7c-1.3,1.9-3.9,2.5-5.8,1.2c-0.1-0.1-0.2-0.1-0.3-0.2c-1.2-1.1-1.4-3-0.3-4.2
		c0.2-0.2,0.5-0.5,0.8-0.6c0.7-0.4,1.5-0.6,2.4-0.6c0.9-0.1,1.9-0.1,2.8-0.2c0.3,0,0.4-0.1,0.4-0.4c0-0.2,0-0.4,0-0.6
		c0-0.9-0.7-1.6-1.6-1.6c-0.7-0.1-1.4,0-2,0.3c-0.3,0.2-0.5,0.4-0.6,0.7c-0.1,0.3-0.3,0.4-0.6,0.4c-0.5,0-0.9,0-1.4,0
		c-0.3,0-0.3-0.1-0.3-0.3c0.1-1,0.7-1.8,1.6-2.3c1.7-1,3.8-1,5.5,0c1,0.5,1.6,1.6,1.6,2.7v7.2c0,0.2-0.1,0.3-0.3,0.3h-1.6
		c-0.2,0-0.3-0.1-0.3-0.3C2549.4-1625.7,2549.4-1626.2,2549.4-1626.7z M2546.8-1626.6c0.6,0,1.2-0.2,1.7-0.6c0.6-0.6,1-1.4,0.9-2.3
		c0-0.2,0-0.3-0.3-0.3c-0.8,0.1-1.6,0.1-2.5,0.2c-0.5,0-1,0.2-1.4,0.4c-0.6,0.4-0.8,1.2-0.4,1.8c0,0,0,0.1,0.1,0.1
		C2545.3-1626.7,2546.1-1626.5,2546.8-1626.6L2546.8-1626.6z"/>
	<path id="패스_13179" class="st2" d="M2485.3-1629.8h-3.5c-0.2,0-0.3,0-0.3,0.3c0,1.1,0.6,2.1,1.6,2.6c1,0.5,2.3,0.4,3.2-0.3
		c0.2-0.1,0.4-0.4,0.5-0.6c0.1-0.3,0.3-0.3,0.5-0.3c0.5,0,1,0,1.4,0c0.3,0,0.3,0.1,0.2,0.3c-0.2,0.9-0.8,1.7-1.6,2.2
		c-1.7,1-3.7,1.1-5.5,0.2c-1.2-0.6-2.1-1.7-2.4-3.1c-0.4-1.6-0.3-3.3,0.4-4.8c0.7-1.5,2.2-2.5,3.9-2.5c1.1-0.1,2.2,0.1,3.1,0.7
		c1.1,0.8,1.9,2,2,3.4c0.1,0.6,0.1,1.1,0.1,1.7c0,0.2-0.1,0.3-0.3,0.3L2485.3-1629.8z M2484.2-1631.3h2.4c0.2,0,0.3,0,0.2-0.3
		c0-1-0.6-1.9-1.6-2.3c-1.4-0.6-2.9,0-3.5,1.4c-0.1,0.2-0.1,0.4-0.2,0.6c-0.1,0.5-0.1,0.5,0.4,0.5
		C2482.7-1631.3,2483.4-1631.3,2484.2-1631.3L2484.2-1631.3z"/>
	<path id="패스_13180" class="st2" d="M2507.5-1630.3c0-1,0.2-2,0.6-2.9c0.6-1.4,2-2.4,3.5-2.6c1.5-0.3,3,0,4.2,0.9
		c0.9,0.7,1.6,1.8,1.7,3c0.4,1.5,0.2,3.1-0.5,4.5c-0.7,1.5-2.2,2.4-3.8,2.5c-0.9,0.1-1.9,0-2.8-0.4c-1.5-0.6-2.5-1.9-2.8-3.5
		C2507.5-1629.3,2507.5-1629.8,2507.5-1630.3z M2515.4-1630.4c0-0.7-0.1-1.3-0.3-2c-0.3-1-1.3-1.7-2.4-1.7c-1.1-0.1-2.1,0.5-2.5,1.5
		c-0.6,1.4-0.6,3,0,4.4c0.4,1,1.4,1.6,2.4,1.5c1,0,2-0.5,2.4-1.5C2515.3-1628.8,2515.4-1629.6,2515.4-1630.4z"/>
	<path id="패스_13182" class="st3" d="M2571.8-1628.1h0.3c0.5,0,0.9,0,1,0.6c0.1,0.4,0.4,0.6,0.8,0.7c0.9,0.4,1.9,0.4,2.8,0
		c0.5-0.2,0.8-0.7,0.8-1.2c0-0.5-0.4-0.9-0.8-1c-0.8-0.3-1.7-0.5-2.5-0.7c-0.5-0.1-1.1-0.3-1.6-0.6c-1.4-0.7-1.9-2.4-1.2-3.7
		c0.2-0.4,0.5-0.8,0.9-1c0.7-0.5,1.5-0.7,2.3-0.8c1.3-0.2,2.7,0.1,3.8,0.9c0.6,0.5,1,1.2,1.1,2c0,0.2,0,0.2-0.2,0.2h-1.8
		c-0.1,0-0.2-0.1-0.2-0.2c0,0,0,0,0,0c-0.1-0.7-0.7-1.2-1.3-1.3c-0.7-0.2-1.4-0.1-2,0.2c-0.5,0.2-0.8,0.6-0.8,1.1
		c0,0.5,0.3,0.9,0.8,1.1c0.8,0.3,1.6,0.5,2.5,0.7c0.5,0.1,1,0.3,1.5,0.5c1.4,0.6,2.1,2.2,1.5,3.6c-0.1,0.3-0.3,0.6-0.6,0.9
		c-0.6,0.6-1.4,1-2.3,1.2c-1.4,0.3-2.8,0.2-4.1-0.5c-1-0.5-1.6-1.4-1.7-2.4c0-0.2,0-0.3,0.2-0.3
		C2571.3-1628.1,2571.6-1628.1,2571.8-1628.1z"/>
	<path id="패스_13183" class="st2" d="M2554.6-1628.1h0.2c0.5,0,0.9-0.1,1.1,0.6c0.1,0.4,0.5,0.6,0.9,0.8c0.8,0.3,1.7,0.3,2.5,0
		c0.5-0.1,0.8-0.5,0.9-1c0.1-0.5-0.2-1.1-0.8-1.2c-0.8-0.3-1.7-0.5-2.6-0.7c-0.7-0.2-1.4-0.5-2-0.9c-1.2-1-1.4-2.8-0.4-3.9
		c0.1-0.2,0.3-0.3,0.5-0.5c0.7-0.5,1.5-0.8,2.4-0.9c1.3-0.2,2.6,0.1,3.7,0.9c0.7,0.5,1.1,1.2,1.2,2c0,0.2,0,0.3-0.2,0.3
		c-0.5,0-1.1,0-1.6,0c-0.2,0-0.2,0-0.2-0.2c-0.2-0.8-0.9-1.3-1.7-1.3c-0.6-0.1-1.1,0-1.6,0.2c-0.4,0.2-0.7,0.6-0.7,1.1
		c0,0.5,0.3,0.9,0.7,1c0.7,0.3,1.5,0.5,2.2,0.6c0.6,0.2,1.2,0.3,1.7,0.5c1.4,0.5,2.1,2.1,1.6,3.5c-0.2,0.4-0.4,0.8-0.7,1.1
		c-0.7,0.6-1.6,1-2.5,1.1c-1.2,0.2-2.5,0-3.6-0.5c-0.9-0.5-1.5-1.3-1.7-2.3c-0.1-0.4-0.1-0.4,0.3-0.4
		C2554.2-1628.1,2554.4-1628.1,2554.6-1628.1z"/>
	<path id="패스_13185" class="st2" d="M2541-1628.6c-0.2,1.9-1.6,3.4-3.5,3.7c-0.9,0.2-1.9,0.1-2.8-0.1c-1.3-0.3-2.3-1.2-2.8-2.5
		c-0.9-1.9-0.8-4.2,0.3-6.1c0.8-1.4,2.2-2.2,3.8-2.2c1.3-0.1,2.5,0.2,3.6,0.9c0.8,0.6,1.4,1.6,1.5,2.6c0,0.2,0,0.3-0.2,0.3
		c-0.5,0-1.1,0-1.6,0c-0.1,0-0.3,0-0.3-0.2c-0.3-1.2-1.4-1.9-2.5-1.8c-1.1,0-2.1,0.8-2.4,1.9c-0.4,1.2-0.4,2.5,0.1,3.7
		c0.6,1.4,2.1,2.1,3.5,1.5c0.3-0.1,0.6-0.3,0.8-0.5c0.3-0.3,0.5-0.6,0.6-1c0-0.2,0.1-0.2,0.2-0.2L2541-1628.6z"/>
	<path id="패스_13188" class="st2" d="M2565-1630.4v-3.3c0-0.2,0-0.3-0.3-0.3c-0.3,0-0.7,0-1,0c-0.2,0-0.3,0-0.2-0.2v-1.3
		c0-0.2,0.1-0.2,0.2-0.2h1c0.3,0,0.4-0.1,0.3-0.4c0-0.6,0-1.3,0-1.9c0-0.2,0-0.3,0.2-0.3h1.8c0.2,0,0.3,0.1,0.2,0.3v2
		c0,0.2,0.1,0.3,0.3,0.3h1.5c0.2,0,0.2,0,0.2,0.2v1.3c0,0.2-0.1,0.2-0.3,0.2h-1.5c-0.2,0-0.3,0.1-0.3,0.3v5.7c0,0.9,0.5,1.3,1.4,1.3
		c0.6,0,0.6,0,0.6,0.6v0.8c0,0.2-0.1,0.3-0.3,0.3c-0.8,0.1-1.5,0.1-2.3-0.1c-1-0.2-1.7-1.1-1.7-2.1
		C2565-1628.3,2565.1-1629.5,2565-1630.4z"/>
	<path id="패스_13189" class="st2" d="M2477-1632.3v7c0,0.3-0.1,0.4-0.4,0.3c-0.5,0-1,0-1.6,0c-0.2,0-0.3,0-0.3-0.3v-14.1
		c0-0.3,0.1-0.4,0.4-0.4c0.5,0,1,0,1.5,0c0.3,0,0.4,0.1,0.4,0.4L2477-1632.3z"/>
	<path id="패스_13190" class="st4" d="M2463.1-1649.7h-2.2c-0.3,0-0.3,0.1-0.3,0.3c0.1,1.2,1.1,2,2.2,2c0.3,0,0.7-0.1,1-0.3
		c0.2-0.1,0.4-0.3,0.6-0.6c0-0.2,0.2-0.3,0.4-0.2c0,0,0,0,0,0h0.5c0.4,0,0.4,0,0.3,0.4c-0.4,0.9-1.2,1.5-2.1,1.7
		c-1.4,0.4-2.8-0.2-3.6-1.4c-0.8-1.4-0.7-3,0.1-4.4c0.7-1.1,2.1-1.7,3.4-1.3c1.3,0.3,2.2,1.3,2.3,2.6c0,0.3,0,0.6,0.1,0.9
		c0,0.3-0.1,0.4-0.4,0.3C2464.5-1649.7,2463.8-1649.7,2463.1-1649.7z M2462.5-1650.6h1.7c0.2,0,0.3,0,0.2-0.2c0-0.4-0.2-0.8-0.5-1.2
		c-0.5-0.5-1.2-0.7-1.9-0.5c-0.7,0.2-1.3,0.8-1.4,1.6c0,0.3,0,0.3,0.3,0.3L2462.5-1650.6z"/>
	<path id="패스_13191" class="st4" d="M2484.7-1649.8c0,1.1-0.5,2.2-1.4,2.9c-1.5,1-3.5,0.7-4.6-0.8c-0.3-0.5-0.5-1-0.6-1.6
		c-0.1-0.8-0.1-1.7,0.2-2.4c0.5-1.3,1.8-2.1,3.2-2C2483.5-1653.5,2484.7-1652.2,2484.7-1649.8z M2479.3-1650c0,0.3,0,0.5,0.1,0.8
		c0.1,0.9,0.8,1.6,1.7,1.7c1,0.2,1.9-0.4,2.2-1.4c0.2-0.8,0.2-1.6,0-2.4c-0.2-0.9-1-1.4-1.9-1.4c-0.9,0-1.7,0.6-1.9,1.4
		C2479.3-1650.8,2479.3-1650.4,2479.3-1650z"/>
	<path id="패스_13192" class="st4" d="M2487.4-1652.5c0.6-1,1.8-1.4,2.9-1.1c1.1,0.2,1.9,1.2,1.8,2.4c0,1.5,0,3,0,4.5
		c0,0.2-0.1,0.2-0.3,0.3c-0.9,0-0.9,0-0.9-0.9v-3.4c0-0.2,0-0.5-0.1-0.7c-0.1-0.7-0.8-1.2-1.5-1.1c-0.8-0.1-1.6,0.4-1.8,1.2
		c-0.1,0.3-0.2,0.6-0.2,0.9v3.7c0,0.3-0.1,0.3-0.3,0.3c-0.9,0-0.9,0-0.9-0.9v-6c0-0.3,0-0.3,0.3-0.3c0.8,0,0.8,0,0.8,0.8
		C2487.4-1652.7,2487.4-1652.6,2487.4-1652.5z"/>
	<path id="패스_13193" class="st4" d="M2468.4-1652.4c0.3-0.6,0.9-1,1.5-1.2c0.5-0.1,1-0.1,1.5,0c1.1,0.2,1.8,1.2,1.8,2.3
		c0,1.5,0,3.1,0,4.6c0,0.2-0.1,0.2-0.3,0.3c-0.9,0-0.9,0-0.9-0.9v-3.5c0-0.2,0-0.5-0.1-0.7c-0.1-0.6-0.6-1-1.2-1.1
		c-0.7-0.2-1.5,0.2-1.9,0.8c-0.2,0.4-0.3,0.9-0.3,1.4v3.6c0,0.3-0.1,0.3-0.3,0.3c-0.9,0-0.9,0-0.9-0.9v-6c0-0.3,0.1-0.3,0.3-0.3
		c0.8,0,0.8,0,0.8,0.8L2468.4-1652.4z"/>
	<path id="패스_13194" class="st4" d="M2448.5-1648.5h0.3c0.2,0,0.2,0,0.3,0.2c0.1,0.4,0.5,0.8,0.9,0.8c0.5,0.1,1.1,0.1,1.6-0.1
		c0.4-0.1,0.6-0.5,0.6-0.9c0-0.4-0.3-0.7-0.6-0.8c-0.5-0.2-1.1-0.3-1.7-0.5c-0.3-0.1-0.6-0.2-0.9-0.3c-0.9-0.4-1.3-1.5-0.9-2.4
		c0.1-0.3,0.4-0.6,0.7-0.8c1.1-0.7,2.6-0.7,3.7,0c0.4,0.3,0.7,0.7,0.8,1.2c0,0.2,0,0.3-0.2,0.3h-0.3c-0.3,0-0.6,0-0.8-0.4
		c0-0.2-0.3-0.3-0.5-0.5c-0.6-0.3-1.2-0.3-1.8,0c-0.3,0.1-0.6,0.5-0.6,0.8c0,0.3,0.2,0.7,0.6,0.8c0.5,0.2,1,0.3,1.6,0.5
		c0.3,0.1,0.7,0.2,1,0.3c0.9,0.4,1.4,1.4,1,2.3c-0.1,0.3-0.3,0.6-0.6,0.8c-0.7,0.5-1.6,0.8-2.4,0.6c-0.6,0-1.2-0.2-1.7-0.6
		c-0.4-0.3-0.7-0.7-0.8-1.2c-0.1-0.3,0-0.4,0.3-0.3L2448.5-1648.5z"/>
	<path id="패스_13195" class="st4" d="M2437.3-1651.4v-4.6c0-0.3,0.1-0.3,0.3-0.3c0.9,0,0.9,0,0.9,0.9v7.6c0,0.3,0.1,0.3,0.3,0.3
		h4.1c0.3,0,0.4,0.1,0.4,0.4c0,0.8,0,0.8-0.7,0.8h-5c-0.3,0-0.3-0.1-0.3-0.3V-1651.4z"/>
	<path id="패스_13196" class="st4" d="M2455.6-1650.2c0-0.6,0-1.3,0-1.9c0-0.3-0.1-0.5-0.4-0.4h-0.2c-0.6,0-0.5,0.1-0.5-0.5
		c0-0.5,0-0.5,0.5-0.5s0.5,0,0.5-0.5v-0.9c0-0.2,0.1-0.2,0.2-0.2c1,0,1,0,1,0.9c0,0.8,0,0.8,0.8,0.8c0.6,0,0.6,0,0.6,0.6
		c0,0.3-0.1,0.5-0.4,0.5c-0.3,0-0.7-0.2-0.9,0c-0.2,0.2-0.1,0.6-0.1,0.9v3.2c0,0.8,0.3,1,1,1c0.3,0,0.4,0,0.4,0.3
		c0,0.7,0,0.7-0.7,0.7c-1.4,0-1.9-0.5-1.9-1.9C2455.6-1648.9,2455.6-1649.6,2455.6-1650.2z"/>
	<path id="패스_13197" class="st4" d="M2445-1650v-3.3c0-0.3,0.1-0.3,0.3-0.3c0.9,0,0.9,0,0.9,0.9v5.9c0,0.3-0.1,0.4-0.4,0.4
		c-0.8,0-0.8,0-0.8-0.8V-1650z"/>
	<path id="패스_13198" class="st4" d="M2445.6-1654.8c-0.4,0-0.7-0.3-0.8-0.7c0-0.4,0.3-0.8,0.8-0.8c0.4,0,0.7,0.3,0.8,0.7
		C2446.3-1655.1,2446-1654.8,2445.6-1654.8z"/>
	
		<linearGradient id="사각형_411_1_" gradientUnits="userSpaceOnUse" x1="1960.9286" y1="-1237.1753" x2="1960.9286" y2="-1238.1753" gradientTransform="matrix(35 0 0 -35 -66221 -44958.1328)">
		<stop  offset="0" style="stop-color:#F251FE"/>
		<stop  offset="1" style="stop-color:#842BC1"/>
	</linearGradient>
	<path id="사각형_411" class="st5" d="M2402-1657h19c4.4,0,8,3.6,8,8v19c0,4.4-3.6,8-8,8h-19c-4.4,0-8-3.6-8-8v-19
		C2394-1653.4,2397.6-1657,2402-1657z"/>
	<g id="그룹_131" transform="translate(2399.062 -1652.935)">
		<path id="패스_13199" class="st6" d="M2.2,19c-0.7-1.1-1.3-2.3-1.7-3.5c-0.4-1.4-0.6-2.8-0.5-4.3c0.1-0.6,0.2-1.3,0.3-1.9
			C0.9,6.9,2.2,4.7,4.1,3c1.4-1.2,3-2.1,4.7-2.6c3.8-1.1,8-0.2,11,2.3c0,0,0.1,0.1,0.2,0.1c1.6,1.4,2.8,3.2,3.6,5.2
			c0.3,0.8,0.5,1.7,0.6,2.6c0,0.5,0.1,0.9,0.1,1.4c0,2.4-0.7,4.7-2,6.6c0,0.1-0.1,0.1-0.1,0.2c-1,1.4-2.2,2.6-3.7,3.5
			c-0.7,0.4-1.4,0.8-2.2,1.1c-0.3,0.1-0.4,0-0.3-0.3c0.1-0.2,0.1-0.5,0.1-0.7c0-0.4,0.2-0.8,0.6-0.9c1.3-0.6,2.4-1.4,3.3-2.5
			l0.3-0.3c2-2.4,2.9-5.6,2.3-8.7c0-0.2-0.1-0.4-0.1-0.6c-1.3-5.2-6.3-8.6-11.6-7.9c-2.6,0.3-5,1.6-6.7,3.6c-0.8,0.9-1.4,2-1.9,3.1
			c-0.6,1.6-0.8,3.3-0.6,5c0,0.4,0.1,0.8,0.2,1.2c0.4,1.7,1.3,3.3,2.5,4.5c0.9,1.1,2.1,1.9,3.4,2.5c0.3,0.1,0.5,0.4,0.5,0.6
			c0,0.3,0.1,0.6,0.1,0.8c0,0.4,0,0.5-0.4,0.3c-2.3-0.8-4.2-2.3-5.6-4.3C2.3,19.2,2.2,19.1,2.2,19z"/>
		<path id="패스_13200" class="st7" d="M10.2,25.8c-0.3-1-0.5-2-0.6-3c-0.2-1.2-0.3-2.4-0.4-3.6c0-0.6-0.1-1.1,0-1.7
			c-0.1-0.8,0.4-1.6,1.2-1.9c1-0.5,2.1-0.5,3.2-0.2c0.5,0.1,0.9,0.4,1.3,0.8c0.3,0.4,0.4,1,0.4,1.5c0,0.5,0,1,0,1.5
			c-0.2,2-0.4,4-0.8,6c0,0.2-0.1,0.4-0.2,0.6C13.4,26.8,11,27,10.2,25.8z"/>
		<path id="패스_13214" class="st6" d="M4.1,13.4c-0.1-0.8-0.1-1.5,0-2.3c0.1-0.9,0.4-1.9,0.8-2.7c0.6-1,1.3-2,2.2-2.7
			c3.1-2.4,7.5-2.3,10.4,0.3c1.3,1.2,2.2,2.7,2.5,4.4c0,0,0,0.1,0,0.1c0.3,1.6,0.1,3.3-0.5,4.8c-0.6,1.3-1.5,2.5-2.7,3.4
			c-0.1,0.1-0.2,0.2-0.3,0.2c-0.2-0.1-0.1-0.2-0.1-0.4v-0.3c0-1.1,0-1.1,0.8-2c0.7-0.8,1.2-1.8,1.3-2.8c0.3-1.5,0.1-3-0.7-4.4
			c-0.3-0.6-0.7-1.1-1.1-1.5C15.2,6,13.1,5.3,11,5.7C9.1,6,7.4,7.2,6.4,9c-0.8,1.3-1,2.9-0.7,4.4c0.2,1.3,0.8,2.5,1.7,3.4
			c0.3,0.2,0.4,0.5,0.3,0.9c0,0.3,0,0.6,0,0.9c0,0.1,0,0.2-0.1,0.3s-0.2,0-0.3-0.1c-1.3-0.9-2.3-2.2-2.9-3.7
			C4.4,14.5,4.2,14,4.1,13.4z"/>
		<path id="패스_13215" class="st7" d="M14.1,13.2c-0.6,0.5-1.3,0.8-2,0.8c-0.7,0-1.3-0.3-1.8-0.7c-1.2-1-1.3-2.9-0.3-4
			c0,0,0.1-0.1,0.1-0.1c0.3-0.2,0.5-0.4,0.8-0.6c1.1-0.5,2.3-0.3,3.2,0.5c0.3,0.3,0.5,0.6,0.6,0.9C15.2,11.1,14.9,12.4,14.1,13.2z"
			/>
	</g>
</g>
</svg>
