<?xml version="1.0" encoding="utf-8"?>
<!-- Generator: Adobe Illustrator 25.0.1, SVG Export Plug-In . SVG Version: 6.00 Build 0)  -->
<svg version="1.1" id="레이어_1" xmlns="http://www.w3.org/2000/svg" xmlns:xlink="http://www.w3.org/1999/xlink" x="0px"
	 y="0px" viewBox="0 0 208 50" style="enable-background:new 0 0 208 50;" xml:space="preserve">
<style type="text/css">
	.st0{fill:none;}
	.st1{fill:#FFFFFF;stroke:#E5E5E5;}
	.st2{fill:#333333;}
	.st3{fill:#F9BA1B;}
	.st4{fill:#37A853;}
	.st5{fill:#EA4636;}
	.st6{fill:#999999;}
	.st7{fill:#3769B3;}
	.st8{fill:#577FC0;}
</style>
<g id="그룹_135" transform="translate(-2156 1664)">
	<g id="사각형_414" transform="translate(2156 -1664)">
		<path class="st0" d="M4,0h200c2.2,0,4,1.8,4,4v42c0,2.2-1.8,4-4,4H4c-2.2,0-4-1.8-4-4V4C0,1.8,1.8,0,4,0z"/>
		<path class="st1" d="M4,0.5h200c1.9,0,3.5,1.6,3.5,3.5v42c0,1.9-1.6,3.5-3.5,3.5H4c-1.9,0-3.5-1.6-3.5-3.5V4
			C0.5,2.1,2.1,0.5,4,0.5z"/>
	</g>
	<path id="패스_13222" class="st2" d="M2221.8-1634.4c0.9,0,1.9,0,2.9,0c0.7,0,0.8,0.3,0.9,0.8c0.4,3.8-2.3,7.2-6.1,7.6
		c-0.2,0-0.4,0-0.7,0c-4.3,0.4-8.1-2.8-8.5-7.2c0,0,0,0,0,0c-0.2-3.1,1.4-6.1,4.2-7.5c2.7-1.5,6.1-1.2,8.5,0.8
		c0.4,0.4,0.5,0.6,0.1,0.9c-0.2,0.2-0.4,0.4-0.6,0.6c-0.3,0.4-0.5,0.3-0.9,0c-1.9-1.5-4.5-1.6-6.5-0.2c-2.1,1.5-3,4.2-2.1,6.6
		c0.8,2.3,3,3.8,5.5,3.7c2.1,0.1,4.1-1.2,4.8-3.3c0.2-0.7,0.2-1-0.7-1c-1.1,0.1-2.3,0-3.5,0c-0.5,0-0.8-0.1-0.8-0.7
		c0-1.4,0-1.4,1.4-1.4C2220.3-1634.4,2221.1-1634.4,2221.8-1634.4z"/>
	<path id="패스_13223" class="st2" d="M2255.8-1626.9c-2.4,1.5-4.6,1.2-6.3-0.7c-1.7-1.9-1.6-4.9,0.1-6.7c1.6-1.8,3.9-2.1,6.1-0.6
		c0.2-1.2,1.2-0.6,1.8-0.7c0.7-0.1,0.4,0.6,0.4,0.9c0,2.9,0,5.8,0,8.7c0.1,2.1-1.3,3.9-3.2,4.5c-2.1,0.6-4.4-0.2-5.6-2.1
		c-0.1-0.2-0.5-0.6-0.1-0.7c0.6-0.2,1.2-1,1.8-0.4c1.3,1.3,2.2,1.7,3.5,1.2C2255.5-1624,2255.9-1625,2255.8-1626.9z M2256.1-1630.9
		c0.1-1.6-1.1-3-2.6-3.1c0,0-0.1,0-0.1,0c-1.6,0.1-2.8,1.5-2.8,3.1c0,1.6,1.2,3,2.8,3.1c1.6,0,2.8-1.3,2.7-2.9
		C2256.1-1630.8,2256.1-1630.9,2256.1-1630.9L2256.1-1630.9z"/>
	<path id="패스_13224" class="st3" d="M2180-1640.8v-5.9c-0.1-1.2,0.8-2.2,1.9-2.3c0.1,0,0.1,0,0.2,0c1.2,0,2.1,1,2.1,2.2
		c0,0,0,0.1,0,0.1v12c0.1,1.2-0.8,2.2-1.9,2.2c-0.1,0-0.1,0-0.2,0c-1.2,0-2.1-0.9-2.1-2.1c0-0.1,0-0.2,0-0.3V-1640.8z"/>
	<path id="패스_13225" class="st2" d="M2304.3-1634.3c0-1.7,0-3.2,0-4.8c0-0.8,0.4-0.7,0.9-0.7c0.5,0,0.9-0.1,0.9,0.7
		c0,4.1,0,8.1,0,12.2c0,0.6-0.1,0.8-0.8,0.8c-0.6,0-1.1,0-0.9-0.8c0-0.1,0-0.3,0-0.4c-1,1.2-2.5,1.7-4,1.4c-1-0.2-1.9-0.8-2.5-1.6
		c-1.7-2.2-1.5-5.2,0.5-7.1C2300-1636.3,2302.3-1636.2,2304.3-1634.3z M2304.3-1630.8c0.2-1.7-1.1-3.2-2.8-3.3c0,0,0,0,0,0
		c-1.7,0-3.1,1.3-3.1,3c0,0.1,0,0.1,0,0.2c-0.2,1.7,1,3.3,2.7,3.5c0.1,0,0.1,0,0.2,0C2303-1627.4,2304.3-1628.8,2304.3-1630.8z"/>
	<path id="패스_13226" class="st2" d="M2242.4-1625.8c-2.8,0-5.1-2.2-5.1-5c0-2.8,2.2-5,5-5.1c0,0,0,0,0,0c2.8,0,5,2.2,5.1,5
		c0,0,0,0,0,0.1C2247.4-1628,2245.2-1625.8,2242.4-1625.8C2242.4-1625.8,2242.4-1625.8,2242.4-1625.8z M2245.2-1630.8
		c0.1-1.6-1.1-2.9-2.7-3c-0.1,0-0.1,0-0.2,0c-1.6,0-2.8,1.3-2.8,2.9c0,0,0,0.1,0,0.1c-0.1,1.6,1.2,3,2.8,3.1c0,0,0,0,0,0
		C2244-1627.8,2245.2-1629.2,2245.2-1630.8C2245.2-1630.8,2245.2-1630.8,2245.2-1630.8z"/>
	<path id="패스_13227" class="st2" d="M2272-1628c-1.2,1.9-3.6,2.7-5.7,2c-2.1-0.7-3.5-2.7-3.4-4.9c0-2.2,1.4-4.1,3.5-4.7
		c2.4-0.6,4.9,0.7,5.6,3.1c0.2,0.6-0.2,0.6-0.5,0.8c-1.8,0.7-3.6,1.5-5.4,2.2c-0.6,0.2-0.6,0.5-0.2,0.9c0.9,1.1,2.6,1.2,3.7,0.3
		c0,0,0,0,0,0c0.8-0.8,1.4-0.5,2,0C2271.7-1628.2,2271.8-1628.1,2272-1628z M2265.1-1631c1.4-0.6,2.6-1.1,3.9-1.6
		c0.8-0.3,0.5-0.6,0.1-0.9c-0.7-0.5-1.7-0.6-2.4-0.1C2265.6-1633.1,2265-1632.1,2265.1-1631L2265.1-1631z"/>
	<path id="패스_13228" class="st2" d="M2236.3-1630.8c0,2.7-2.2,5-5,5c0,0-0.1,0-0.1,0c-2.8,0-5-2.2-5-5c0,0,0-0.1,0-0.1
		c0-2.7,2.2-5,4.9-5c0.1,0,0.1,0,0.2,0c2.7,0,5,2.2,5,5C2236.3-1630.8,2236.3-1630.8,2236.3-1630.8z M2228.4-1630.8
		c0,1.6,1.3,3,2.9,3c0,0,0,0,0,0c1.6-0.1,2.9-1.4,2.8-3.1c0.1-1.6-1.2-3-2.8-3.1c0,0-0.1,0-0.1,0c-1.6,0-2.9,1.3-2.9,2.9
		C2228.4-1630.9,2228.4-1630.8,2228.4-1630.8L2228.4-1630.8z"/>
	<path id="패스_13229" class="st2" d="M2277-1633c0-2,0-4,0-6c0-0.6,0.1-0.9,0.8-0.8c1.4,0,2.8,0,4.1,0c2.2,0,4,1.8,4.1,4
		c0,2.2-1.9,4.1-4.1,4.1c-0.7,0-1.5,0-2.2,0c-0.8-0.1-0.9,0.3-0.9,1c0,1.3,0,2.6,0,3.9c0,0.8-0.4,0.7-0.9,0.7
		c-0.5,0-0.9,0.1-0.9-0.7C2277.1-1628.9,2277-1631,2277-1633z M2278.8-1635.8c0,0.6,0,1.2,0,1.8c0,0.5,0.2,0.6,0.6,0.6
		c0.9,0,1.8,0,2.7,0c1.2-0.1,2.2-1.1,2.1-2.4c0-1.5-1.1-2.4-3-2.4C2278.8-1638.2,2278.8-1638.2,2278.8-1635.8L2278.8-1635.8z"/>
	<path id="패스_13230" class="st2" d="M2323.5-1627.4c-0.8,1.1-2.1,1.7-3.4,1.6c-1.6,0-3-1.2-3.2-2.8c-0.1-1.7,1.2-3.2,2.9-3.4
		c1.2-0.3,2.5-0.1,3.7,0.4c0.2-0.9-0.3-1.9-1.2-2.2c-1.1-0.5-2.3-0.2-3.1,0.7c-0.3,0.3-1.6,0.2-1.8-0.2c-0.1-0.2,0.1-0.4,0.2-0.5
		c1.1-1.5,2.9-2.1,4.7-1.6c1.7,0.3,2.9,1.8,3,3.5c0,1.8,0,3.5,0,5.3c0,0.5-0.1,0.9-0.7,0.8c-0.5-0.1-1.1,0.1-0.9-0.7
		C2323.6-1627,2323.6-1627.2,2323.5-1627.4z M2320.7-1627.5c1.2-0.1,2.3-0.8,2.7-1.9c0.2-0.6,0.1-1-0.5-1.2
		c-0.9-0.3-1.8-0.3-2.6-0.1c-0.9,0.2-1.6,1-1.5,1.9C2319-1627.9,2319.9-1627.3,2320.7-1627.5L2320.7-1627.5z"/>
	<path id="패스_13231" class="st4" d="M2191.7-1636.4c0,1.2,0,2.4,0,3.6c0.1,1.2-0.8,2.2-2,2.3c0,0-0.1,0-0.1,0
		c-1.2,0-2.2-0.9-2.2-2.1c0-0.1,0-0.1,0-0.2c0-2.4,0-4.7,0-7.1c-0.1-1.2,0.8-2.2,1.9-2.3c0,0,0.1,0,0.1,0c1.2,0,2.2,0.9,2.2,2.1
		c0,0.1,0,0.1,0,0.2C2191.8-1638.8,2191.7-1637.6,2191.7-1636.4z"/>
	<path id="패스_13232" class="st5" d="M2172.5-1645c0-1.2,0-2.4,0-3.5c-0.1-1.2,0.8-2.2,2-2.3c0.1,0,0.1,0,0.2,0
		c1.2,0,2.1,1,2.1,2.2c0,0,0,0.1,0,0.1c0,2.4,0,4.7,0,7.1c0.1,1.2-0.8,2.2-1.9,2.3c-0.1,0-0.2,0-0.2,0c-1.2,0-2.1-1-2.1-2.2
		c0,0,0-0.1,0-0.1V-1645z"/>
	<path id="패스_13233" class="st2" d="M2290.9-1635.8c2.6-0.1,4.7,2,4.8,4.6c0,0.1,0,0.3,0,0.4c0.1,2.6-1.9,4.8-4.5,4.9
		c-0.1,0-0.2,0-0.4,0c-2.6,0-4.8-2.2-4.8-4.8c0-0.1,0-0.1,0-0.2c-0.1-2.6,1.9-4.8,4.5-5C2290.7-1635.8,2290.8-1635.8,2290.9-1635.8z
		 M2293.9-1630.8c0.1-1.7-1.2-3.2-2.9-3.4c0,0-0.1,0-0.1,0c-1.8,0.1-3.1,1.5-3.1,3.3c0,0,0,0,0,0.1c-0.1,1.7,1.1,3.2,2.8,3.4
		c0.1,0,0.2,0,0.3,0c1.7,0,3.1-1.4,3-3.1C2294-1630.7,2293.9-1630.8,2293.9-1630.8z"/>
	<path id="패스_13234" class="st2" d="M2345.3-1635.8c1.2-0.1,2.5,0.4,3.2,1.4c0.2,0.2,0.8,0.6,0.2,0.9c-0.4,0.2-0.9,0.9-1.5,0.2
		c-0.7-0.8-1.9-1.1-2.9-0.6c-0.5,0.2-0.8,0.5-0.8,1c0,0.5,0.3,0.9,0.8,0.9c0.9,0.3,1.9,0.5,2.8,0.8c1.4,0.3,2.3,1.8,1.9,3.2
		c0,0.1-0.1,0.2-0.1,0.3c-0.2,0.6-0.6,1-1.1,1.4c-2.1,1.3-4.7,0.7-6.1-1.3c-0.1-0.2-0.6-0.6,0-0.8c0.5-0.1,0.9-0.9,1.4,0
		c0.6,1,1.7,1.5,2.8,1.2c0.7-0.1,1.3-0.4,1.4-1.1c0.1-0.8-0.5-1.1-1.1-1.3c-1.1-0.2-2.2-0.5-3.2-1c-1.1-0.6-1.6-2-1-3.2
		c0.2-0.4,0.6-0.8,1-1C2343.7-1635.6,2344.5-1635.8,2345.3-1635.8z"/>
	<path id="패스_13235" class="st2" d="M2330.3-1635.8c1.2-0.1,2.4,0.5,3.2,1.4c0.1,0.2,0.6,0.6,0.1,0.8c-0.4,0.2-0.9,0.9-1.5,0.2
		c-0.7-0.8-1.8-1.1-2.8-0.7c-0.5,0.2-0.9,0.4-0.9,1c0,0.5,0.4,0.9,0.9,1c0.7,0.2,1.5,0.4,2.2,0.6c0.6,0.1,1.2,0.4,1.6,0.8
		c1.1,0.9,1.2,2.6,0.3,3.7c-0.2,0.2-0.4,0.4-0.6,0.5c-2.1,1.3-4.8,0.8-6.2-1.3c-0.1-0.2-0.6-0.6,0-0.8c0.5-0.1,0.9-0.9,1.4-0.1
		c0.6,1,1.7,1.5,2.8,1.2c0.7-0.1,1.3-0.4,1.4-1.1c0.1-0.8-0.5-1.1-1.1-1.3c-1.2-0.2-2.3-0.6-3.4-1.2c-1.1-0.7-1.4-2.1-0.7-3.2
		c0.2-0.3,0.4-0.5,0.7-0.7c0.6-0.5,1.3-0.7,2-0.8L2330.3-1635.8z"/>
	<path id="패스_13236" class="st2" d="M2316.1-1633.1c-0.4,0.1-0.7,0.3-1,0.5c-0.3,0.2-0.5,0.2-0.8-0.2c-0.5-1-1.6-1.5-2.8-1.3
		c-1.2,0.2-2.1,1-2.4,2.2c-0.8,2.4,0.8,4.6,3.2,4.5c0.9,0,1.6-0.5,2.1-1.2c0.5-0.9,1-0.1,1.5,0.1c0.7,0.3,0,0.6-0.1,0.9
		c-1.1,1.6-3.1,2.3-5,1.8c-1.8-0.5-3.2-2-3.5-3.9c-0.3-2.8,1-5.1,3.5-5.7C2313-1636.3,2315.3-1635.2,2316.1-1633.1z"/>
	<path id="패스_13237" class="st2" d="M2336.4-1631c0-0.7,0-1.4,0-2.1c0-0.6-0.1-0.9-0.7-0.8c-0.6,0.1-1,0-1-0.8
		c0-0.7,0.3-0.9,0.9-0.8c0.7,0.1,0.8-0.2,0.8-0.8c0-0.4,0-0.7,0-1c-0.1-0.9,0.2-1.1,1-1c0.6,0,0.8,0.2,0.7,0.8c0,0.2,0,0.3,0,0.5
		c0,1.6,0,1.6,1.6,1.6c0.7,0,0.7,0.3,0.8,0.9c0,0.6-0.1,0.8-0.8,0.8c-1.5,0-1.5,0-1.5,1.6c0,1,0,2.1,0,3.2c0,1.2,0.4,1.6,1.6,1.5
		c0.9-0.1,0.8,0.7,0.9,1.1c0.2,0.7-0.5,0.4-0.8,0.5c-1.5,0.4-3-0.5-3.4-2c-0.1-0.3-0.1-0.7-0.1-1
		C2336.4-1629.7,2336.4-1630.4,2336.4-1631z"/>
	<path id="패스_13238" class="st2" d="M2259.5-1633.5c0-2.2,0-4.4,0-6.6c0-0.6,0.1-0.9,0.8-0.8c0.3,0,0.6,0,0.9,0
		c0.4,0,0.6,0.1,0.6,0.5c0,4.6,0,9.2,0,13.8c0,0.4-0.1,0.5-0.5,0.5c-0.3,0-0.5,0-0.8,0c-0.7,0.1-1-0.1-0.9-0.9
		C2259.6-1629.2,2259.5-1631.4,2259.5-1633.5z"/>
	<path id="패스_13239" class="st3" d="M2184.2-1654.4c0,0.5,0,0.9,0,1.4c-0.1,1.1-1,2-2.1,2c-1.1,0-2-0.8-2.1-1.9
		c0-0.9,0-1.8,0-2.7c0.1-1.1,1-2,2.1-1.9c1.1,0,2,0.9,2.1,2C2184.3-1655.2,2184.2-1654.8,2184.2-1654.4z"/>
	<path id="패스_13240" class="st3" d="M2180-1627.1c0-0.5,0-0.9,0-1.4c0.1-1.1,1-1.9,2.1-1.9c1.1,0,2,0.9,2.1,2c0,0.9,0,1.7,0,2.6
		c-0.1,1.1-1,2-2.1,2c-1.1,0-2.1-0.9-2.1-2C2180-1626.3,2180-1626.7,2180-1627.1z"/>
	<path id="패스_13241" class="st5" d="M2176.7-1633.8c0,0.4,0,0.9,0,1.3c-0.1,1.1-1,1.9-2.1,1.9c-1.1,0-1.9-0.9-2-1.9
		c-0.1-0.9-0.1-1.8,0-2.7c0.1-1.1,1-1.9,2.1-1.9c1.1,0,1.9,0.9,2,1.9C2176.8-1634.7,2176.8-1634.3,2176.7-1633.8z"/>
	<path id="패스_13242" class="st4" d="M2191.7-1647.6c0,0.4,0,0.8,0,1.3c-0.1,1.1-1,2-2.1,2c-1.1,0-2-0.8-2.1-1.9
		c0-0.9,0-1.7,0-2.6c0.1-1.1,1-2,2.1-2c1.1,0,2,0.8,2.1,1.9C2191.8-1648.5,2191.7-1648.1,2191.7-1647.6z"/>
	<path id="패스_13243" class="st6" d="M2237.9-1650.2c-0.6,0-1.2,0-1.8,0c-0.6,0-0.6,0.2-0.5,0.7c0.2,1.2,1.4,1.9,2.5,1.7
		c0.3-0.1,0.7-0.2,0.9-0.5c0.4-0.3,0.7-0.5,1-0.1c0.4,0.5-0.2,0.7-0.4,0.9c-1.4,1.2-3.5,0.9-4.7-0.5c-0.3-0.4-0.5-0.8-0.7-1.3
		c-0.5-2.5,0.6-4.6,2.6-5c1.7-0.2,3.3,1,3.5,2.7c0,0.4,0,0.7-0.1,1.1c-0.1,0.4-0.3,0.3-0.6,0.3
		C2239.2-1650.2,2238.6-1650.2,2237.9-1650.2z M2237.3-1651.2h1.4c0.4,0,0.5-0.1,0.5-0.5c0-0.7-0.5-1.3-1.1-1.5
		c-0.7-0.3-1.5,0-2,0.6c-0.3,0.4-0.6,0.8-0.4,1.2s0.7,0.1,1,0.2C2236.9-1651.2,2237.1-1651.2,2237.3-1651.2L2237.3-1651.2z"/>
	<path id="패스_13244" class="st7" d="M2169.4-1640.7c0,0.4,0,0.8,0,1.3c-0.1,1.1-1,1.9-2.1,2c-1.1,0-2-0.9-2.1-2
		c0-0.8,0-1.7,0-2.5c0-1.1,1-2.1,2.1-2.1c1.1,0,2.1,0.9,2.1,2.1C2169.5-1641.5,2169.5-1641.1,2169.4-1640.7L2169.4-1640.7z"/>
	<path id="패스_13245" class="st8" d="M2194.8-1640.8c0-0.4,0-0.8,0-1.2c0.1-1.1,1-2,2.1-2c1.1,0,2.1,0.9,2.1,2c0,0.8,0,1.7,0,2.5
		c-0.1,1.1-1,2-2.1,2c-1.1,0-2.1-0.9-2.1-2C2194.8-1639.9,2194.8-1640.3,2194.8-1640.8z"/>
	<path id="패스_13246" class="st6" d="M2253.6-1650.5c0-2.6,1.9-4.3,4.2-3.7c0.2,0,0.3,0.1,0.5,0.2c1.6,0.7,2.3,2.8,1.8,4.9
		c-0.4,1.6-2,2.6-3.6,2.3C2254.7-1647.1,2253.4-1648.7,2253.6-1650.5z M2259-1650.5c0-1.7-0.7-2.7-1.9-2.8c-1.4,0-2.2,1-2.1,2.9
		c0,1.8,0.9,2.8,2.3,2.6C2258.3-1647.9,2259-1648.9,2259-1650.5L2259-1650.5z"/>
	<path id="패스_13247" class="st6" d="M2263.3-1653.2c0.5-0.6,1.2-0.9,2-1.1c1.1-0.3,2.2,0.4,2.5,1.5c0,0.1,0,0.2,0.1,0.3
		c0.2,1.7,0.2,3.4,0.1,5.2c0,0.5-0.4,0.4-0.7,0.4c-0.5,0-0.6-0.1-0.6-0.6c0-1.4,0-2.7,0-4c0-1.3-0.4-1.8-1.5-1.8
		c-0.9,0-1.7,0.7-1.8,1.6c0,0.1,0,0.1,0,0.2v3.7c0,0.4,0.2,0.9-0.6,0.9c-0.7,0-0.6-0.4-0.6-0.9v-5.7c0-0.3-0.3-0.8,0.4-0.8
		C2263.2-1654.2,2263.6-1654.2,2263.3-1653.2z"/>
	<path id="패스_13248" class="st6" d="M2243.4-1653.3c0.5-0.4,1-0.7,1.6-0.9c1.6-0.3,2.8,0.3,2.9,1.9c0.1,1.7,0.1,3.3,0.1,5
		c0,0.5-0.4,0.4-0.7,0.5c-0.4,0-0.6-0.1-0.6-0.6c0-1.4,0-2.7,0-4c0-1.3-0.4-1.8-1.5-1.8c-0.9,0-1.7,0.7-1.8,1.6c0,0.1,0,0.1,0,0.2
		v3.8c0,0.4,0,0.7-0.6,0.7c-0.6,0-0.7-0.3-0.7-0.7c0-1.9,0-3.9,0-5.9c0-0.3-0.2-0.7,0.4-0.8
		C2243.2-1654.2,2243.5-1654.1,2243.4-1653.3z"/>
	<path id="패스_13249" class="st6" d="M2224.8-1654.3c1,0,1.9,0.5,2.4,1.3c0.1,0.3,0.5,0.7,0.1,0.9c-0.4,0.1-0.9,0.3-1.2-0.4
		c-0.4-0.9-1.2-0.9-2-0.7c-0.5,0.1-0.8,0.5-0.9,0.9c0,0.5,0.3,0.8,0.7,0.9c0.7,0.2,1.4,0.4,2.1,0.6c0.9,0.2,1.5,1,1.5,1.9
		c0,0.9-0.7,1.7-1.5,1.9c-1.4,0.6-3,0.1-3.9-1.1c-0.2-0.3-0.5-0.8-0.1-1c0.3-0.2,0.8-0.2,1.1,0.2c0,0.1,0.1,0.1,0.1,0.2
		c0.5,0.9,1.7,1.2,2.6,0.7c0.3-0.1,0.6-0.4,0.6-0.8c0-0.4-0.2-0.8-0.6-0.9c-0.5-0.2-1.1-0.4-1.6-0.5c-1.6-0.5-2.2-1.1-2-2.2
		C2222.4-1653.7,2223.6-1654.5,2224.8-1654.3z"/>
	<path id="패스_13250" class="st6" d="M2210.9-1651.8v-3.9c0-0.4-0.2-0.9,0.6-1c0.9,0,0.7,0.5,0.7,1c0,2.3,0,4.5,0,6.8
		c0,0.7,0.1,1,0.9,1c1-0.1,2.1,0,3.2,0c0.4,0,0.6,0.1,0.6,0.5s-0.1,0.5-0.5,0.5c-1.6,0-3.2,0-4.9,0c-0.5,0-0.5-0.3-0.5-0.6
		C2210.9-1649,2210.9-1650.4,2210.9-1651.8z"/>
	<path id="패스_13251" class="st6" d="M2230-1650.7c0-0.5,0-1,0-1.4c0-0.7,0-1.2-0.9-1.1c-0.3,0-0.4-0.1-0.5-0.5
		c0-0.4,0.1-0.6,0.5-0.5c0.8,0.1,0.9-0.3,0.8-0.9c0-0.5,0-0.9,0.7-0.9c0.6,0,0.7,0.4,0.6,0.8c-0.1,0.7,0,1.1,0.9,1
		c0.4-0.1,0.5,0.1,0.5,0.5c0,0.4-0.2,0.5-0.5,0.5c-0.8-0.1-0.9,0.3-0.8,0.9c0,1.2,0,2.4,0,3.6c0,0.6,0.2,0.9,0.8,0.9
		c0.3,0,0.5,0,0.5,0.4c0,0.4-0.1,0.5-0.5,0.6c-0.8,0.3-1.7-0.2-2-1c-0.1-0.1-0.1-0.3-0.1-0.5C2230-1649.1,2230-1649.9,2230-1650.7
		C2230-1650.7,2230-1650.7,2230-1650.7z"/>
	<path id="패스_13252" class="st6" d="M2219.8-1650.5v3c0,0.4,0,0.7-0.5,0.7c-0.4,0-0.7,0-0.7-0.6c0-2,0-4.1,0-6.1
		c0-0.5,0.3-0.6,0.7-0.6c0.5,0,0.5,0.3,0.5,0.6L2219.8-1650.5z"/>
	<path id="패스_13253" class="st6" d="M2219.1-1655.4c-0.3,0-0.6-0.2-0.6-0.6c0,0,0-0.1,0-0.1c0-0.4,0.3-0.7,0.6-0.7
		c0,0,0.1,0,0.1,0c0.4,0,0.7,0.3,0.7,0.6c0,0,0,0,0,0C2219.9-1655.7,2219.7-1655.5,2219.1-1655.4z"/>
</g>
</svg>
