<svg xmlns="http://www.w3.org/2000/svg" width="547.114" height="50" viewBox="0 0 547.114 50">
  <g id="그룹_14" data-name="그룹 14" transform="translate(-215 -471)">
    <rect id="사각형_389" data-name="사각형 389" width="50" height="50" rx="25" transform="translate(215 471)" fill="#ff5300"/>
    <path id="패스_9423" data-name="패스 9423" d="M355.7,2219.845l13.21,7.627a.611.611,0,0,1,0,1.058l-13.21,7.627a.611.611,0,0,1-.915-.529v-15.255a.611.611,0,0,1,.915-.529Z" transform="translate(-120.863 -1731.764)" fill="#fff"/>
    <g id="그룹_9" data-name="그룹 9" transform="translate(-50.35 -58.361)">
      <path id="패스_9424" data-name="패스 9424" d="M2181.151,2250.665a4.259,4.259,0,0,0,0-5.418.663.663,0,0,1,.069-.9h0a.658.658,0,0,1,.955.063,5.487,5.487,0,0,1,0,7.111.659.659,0,0,1-.955.063h0A.662.662,0,0,1,2181.151,2250.665Z" transform="translate(-1407.107 -1693.844)" fill="#333"/>
      <path id="패스_9425" data-name="패스 9425" d="M2189.438,2246.926a7.6,7.6,0,0,0,0-10.3.659.659,0,0,1,.046-.924h0a.661.661,0,0,1,.932.037,8.66,8.66,0,0,1,0,12.09.661.661,0,0,1-.932.037h0a.658.658,0,0,1-.046-.94Z" transform="translate(-1413.015 -1687.663)" fill="#333"/>
      <path id="패스_9426" data-name="패스 9426" d="M2198.119,2244a.658.658,0,0,1-.031-.912,11.121,11.121,0,0,0,0-15.159.658.658,0,0,1,.031-.912l.077-.074a.659.659,0,0,1,.95.028,12.487,12.487,0,0,1,0,17.08.662.662,0,0,1-.949.029Z" transform="translate(-1419.204 -1681.389)" fill="#333"/>
      <path id="패스_9427" data-name="패스 9427" d="M2132.361,2232.876h-6.008a.753.753,0,0,0-.753.753v5.52a.753.753,0,0,0,.753.753h6.008a.752.752,0,0,1,.473.166l5.643,4.545a.752.752,0,0,0,1.226-.587v-15.278a.752.752,0,0,0-1.226-.587l-5.635,4.551A.755.755,0,0,1,2132.361,2232.876Z" transform="translate(-1367.506 -1682.277)" fill="#333"/>
    </g>
    <text id="_26.00" data-name="26.00" transform="translate(276 500)" fill="#ff5300" font-size="12" font-family="Roboto-Regular, Roboto"><tspan x="0" y="0">26.00</tspan></text>
    <text id="_43.25" data-name="43.25" transform="translate(663 500)" fill="#ff5300" font-size="12" font-family="Roboto-Regular, Roboto"><tspan x="0" y="0">43.25</tspan></text>
    <rect id="사각형_387" data-name="사각형 387" width="335" height="5.32" rx="2.66" transform="translate(317.496 493)" fill="#dbdbdb"/>
    <rect id="사각형_388" data-name="사각형 388" width="139.34" height="5.32" rx="2.66" transform="translate(317 493)" fill="#ff5300"/>
    <g id="그룹_8" data-name="그룹 8" transform="translate(-91 -14)">
      <circle id="타원_1" data-name="타원 1" cx="15" cy="15" r="15" transform="translate(533 495)" fill="#fff"/>
      <circle id="타원_2" data-name="타원 2" cx="4" cy="4" r="4" transform="translate(544 506)" fill="#ff5300"/>
    </g>
    <g id="그룹_13" data-name="그룹 13" transform="translate(-18 0.166)">
      <path id="패스_9450" data-name="패스 9450" d="M1.521,12H.576A.525.525,0,0,1,0,11.529V.471A.532.532,0,0,1,.576,0h.945A.526.526,0,0,1,2.1.471V11.537A.524.524,0,0,1,1.521,12Z" transform="translate(767 505.773) rotate(-90)" fill="#333"/>
      <g id="download" transform="translate(766 485.834)">
        <g id="그룹_12" data-name="그룹 12" transform="translate(0)">
          <path id="패스_9451" data-name="패스 9451" d="M46.392,8.954a.337.337,0,0,0-.311-.208H42.4V.336A.337.337,0,0,0,42.059,0H36.677a.337.337,0,0,0-.336.336V8.746h-3.7a.336.336,0,0,0-.238.574l6.711,6.733a.337.337,0,0,0,.476,0l6.73-6.733A.336.336,0,0,0,46.392,8.954Z" transform="translate(-32.304 0)" fill="#333"/>
        </g>
      </g>
    </g>
  </g>
</svg>
