<?xml version="1.0" encoding="utf-8"?>
<!-- Generator: Adobe Illustrator 25.0.1, SVG Export Plug-In . SVG Version: 6.00 Build 0)  -->
<svg version="1.1" id="레이어_1" xmlns="http://www.w3.org/2000/svg" xmlns:xlink="http://www.w3.org/1999/xlink" x="0px"
	 y="0px" viewBox="0 0 130 50" style="enable-background:new 0 0 130 50;" xml:space="preserve">
<style type="text/css">
	.st0{fill:none;}
	.st1{fill:#FFFFFF;stroke:#E5E5E5;}
	.st2{fill:#1ED760;}
	.st3{fill:#333333;}
	.st4{fill:#1E1A1A;}
	.st5{fill:#999999;}
</style>
<g id="그룹_133" transform="translate(-2617 1664)">
	<g id="사각형_415" transform="translate(2617 -1664)">
		<path class="st0" d="M4,0h122c2.2,0,4,1.8,4,4v42c0,2.2-1.8,4-4,4H4c-2.2,0-4-1.8-4-4V4C0,1.8,1.8,0,4,0z"/>
		<path class="st1" d="M4,0.5h122c1.9,0,3.5,1.6,3.5,3.5v42c0,1.9-1.6,3.5-3.5,3.5H4c-1.9,0-3.5-1.6-3.5-3.5V4
			C0.5,2.1,2.1,0.5,4,0.5z"/>
	</g>
	<path id="패스_13137" class="st2" d="M2662-1638.6c0.1,9.4-7.5,17.1-16.9,17.2c-0.1,0-0.2,0-0.3,0c-9.4,0-17.1-7.6-17.1-17.1
		c0,0,0,0,0,0c0-9.5,7.6-17.2,17.2-17.3c0.2,0,0.4,0,0.6,0C2654.7-1655.5,2662-1647.8,2662-1638.6z M2642.3-1646.9
		c-0.5,0-1.2,0.1-2,0.1c-2.1,0.1-4.2,0.5-6.2,1.1c-0.9,0.2-1.4,1.1-1.2,2c0,0,0,0.1,0,0.1c0.3,0.9,1.2,1.4,2.1,1.1
		c2.8-0.7,5.6-1,8.5-0.9c1.9,0.1,3.7,0.3,5.5,0.7c2.1,0.4,4.1,1.2,5.9,2.2c0.8,0.5,1.8,0.4,2.4-0.4c0-0.1,0.1-0.1,0.1-0.2
		c0.5-1,0.2-1.9-0.9-2.5C2652.1-1645.8,2647.2-1647,2642.3-1646.9L2642.3-1646.9z M2634-1638.4c0,0.3,0.1,0.6,0.3,0.9
		c0.5,0.5,1.2,0.6,1.8,0.4c3.8-1,7.8-1,11.6-0.1c1.8,0.4,3.6,1.1,5.2,2.1c0.6,0.5,1.5,0.3,2-0.3c0,0,0.1-0.1,0.1-0.1
		c0.4-0.7,0.2-1.6-0.5-2c0,0-0.1-0.1-0.1-0.1c-0.2-0.2-0.5-0.3-0.7-0.4c-3.9-2-8.2-3-12.6-2.8c-2,0.1-4,0.4-5.9,0.9
		C2634.4-1639.8,2633.9-1639.1,2634-1638.4L2634-1638.4z M2642.1-1635.2c-2.1,0-4.2,0.2-6.2,0.7c-0.9,0.2-1.3,0.7-1.2,1.5
		c0.2,0.7,0.9,1.1,1.6,0.9c0,0,0,0,0,0c0.5-0.1,1.1-0.2,1.6-0.3c2.5-0.5,5.1-0.5,7.6-0.1c1.9,0.4,3.7,1.1,5.4,1.9
		c0.3,0.2,0.7,0.3,1,0.3c0.4,0,0.8-0.3,1-0.7c0.2-0.4,0.1-0.8-0.2-1.1c-0.3-0.3-0.6-0.6-1-0.8
		C2648.8-1634.5,2645.5-1635.3,2642.1-1635.2L2642.1-1635.2z"/>
	<path id="패스_13138" class="st3" d="M2731.5-1633.2c0.9-2.4,1.7-4.8,2.5-7.1c0.2-0.5,0.4-0.7,0.9-0.7c0.6,0,1.2,0,1.7,0
		c0.6,0,0.7,0.1,0.5,0.7c-1.2,2.9-2.3,5.9-3.4,8.8c-0.4,1.2-0.9,2.5-1.5,3.6c-1.2,2-3.8,2.6-5.7,1.4c0,0-0.1,0-0.1-0.1
		c-0.2-0.1-0.3-0.3-0.2-0.5c0,0,0,0,0-0.1c0.2-0.5,0.4-0.9,0.6-1.4c0.2-0.4,0.4-0.4,0.7-0.3c0.3,0.1,0.6,0.2,1,0.3
		c0.6,0.1,1.3-0.3,1.4-1c0-0.2,0-0.5-0.1-0.7c-1.1-2.6-2.2-5.2-3.2-7.8c-0.1-0.3-0.4-0.5-0.7-0.5c-1.8,0-1.8,0-1.8,1.8
		c0,2.2,0,4.3,0,6.5c0,0.5-0.1,0.7-0.6,0.6c-0.5,0-1,0-1.5,0c-0.6,0.1-0.8-0.1-0.8-0.8c0-2.5,0-5.1,0-7.6c0-0.5-0.2-0.7-0.7-0.6
		c-0.6,0.1-0.9-0.2-0.8-0.8c0-0.4,0-0.8,0-1.2c0-0.5,0.2-0.7,0.6-0.6c0.6,0.1,0.8-0.1,0.8-0.8c0-2.6,1.7-4,4.5-3.6
		c1.4,0.2,1.4,0.2,1.4,1.7c0,1.1,0,1.1-1.1,1c-1.2-0.2-1.8,0.2-1.9,1.2c0,0.4,0.1,0.6,0.5,0.6c1.1,0,2.2,0,3.4,0
		c0.4-0.1,0.8,0.2,0.9,0.6c0.9,2.3,1.8,4.6,2.6,6.9C2731.3-1633.4,2731.4-1633.4,2731.5-1633.2z"/>
	<path id="패스_13139" class="st3" d="M2684.6-1630.7c0,1.4,0,2.6,0,3.9c0,0.7-0.2,0.9-0.8,0.8c-0.5,0-1,0-1.5,0
		c-0.6,0.1-0.7-0.2-0.7-0.7c0-2.9,0-5.7,0-8.6c0-1.6,0-3.3,0-4.9c0-0.6,0.2-0.8,0.8-0.7c0.5,0,1,0,1.5,0c0.6-0.1,0.9,0.1,0.8,0.7
		c0,0.1,0,0.3,0,0.4c0.2,0.1,0.3-0.1,0.3-0.1c2.1-1.9,5.3-1.7,7.1,0.4c0.2,0.2,0.4,0.5,0.5,0.7c1.4,2.2,1.4,5,0,7.2
		c-1.5,2.4-4.7,3.1-7.1,1.6C2685.2-1630.2,2684.9-1630.5,2684.6-1630.7z M2690.6-1635.2c0.1-1.7-1.1-3.2-2.7-3.4
		c-1.5-0.1-2.9,0.9-3.2,2.4c-0.5,1.6,0.2,3.3,1.7,4.1C2688.4-1631.1,2690.6-1632.7,2690.6-1635.2L2690.6-1635.2z"/>
	<path id="패스_13140" class="st3" d="M2674.6-1644.9c1.8,0,3.7,0.5,5.2,1.6c0.4,0.3,0.5,0.6,0.2,1c-0.3,0.4-0.6,0.8-0.9,1.3
		c-0.2,0.4-0.5,0.4-0.8,0.1c-0.9-0.7-2-1.1-3.1-1.3c-0.6-0.1-1.2,0-1.7,0.2c-0.6,0.2-1,0.7-1,1.3c0,0.6,0.3,1.1,0.8,1.3
		c0.8,0.4,1.6,0.6,2.5,0.8c0.9,0.2,1.8,0.5,2.7,0.9c1.4,0.6,2.3,2,2.3,3.6c0.1,1.7-0.8,3.2-2.3,4c-2,1-4.4,1-6.4,0.2
		c-1-0.4-1.9-0.9-2.7-1.5c-0.4-0.3-0.6-0.6-0.1-1c0.5-0.5,0.8-1.2,1.4-1.4c0.6-0.2,1,0.6,1.6,0.9c1.2,0.7,2.6,1,3.9,0.8
		c1.2-0.2,1.9-1,1.6-2.1c-0.2-0.5-0.6-0.9-1.1-1c-0.7-0.3-1.5-0.5-2.3-0.7c-0.8-0.2-1.6-0.5-2.4-0.8c-1.4-0.5-2.3-1.8-2.4-3.2
		c-0.2-1.7,0.6-3.3,2-4.2C2672.3-1644.6,2673.5-1644.9,2674.6-1644.9z"/>
	<path id="패스_13141" class="st3" d="M2700.5-1629.2c-3.3,0.1-6-2.6-6.1-5.9c0-0.1,0-0.1,0-0.2c0-3.3,2.7-6.1,6.1-6
		c0,0,0.1,0,0.1,0c3.3-0.1,6.1,2.6,6.1,5.9c0,0.1,0,0.1,0,0.2c0,3.3-2.7,6-6.1,6C2700.6-1629.2,2700.5-1629.2,2700.5-1629.2z
		 M2700.5-1638.6c-1.8,0-3.2,1.4-3.2,3.2c0,0,0,0.1,0,0.1c-0.1,1.9,1.4,3.4,3.2,3.5c0,0,0,0,0,0c1.8,0,3.2-1.5,3.2-3.3
		c0,0,0-0.1,0-0.1C2703.8-1637,2702.4-1638.5,2700.5-1638.6C2700.6-1638.6,2700.6-1638.6,2700.5-1638.6z"/>
	<path id="패스_13142" class="st3" d="M2708.3-1635.1c0-0.9,0-1.9,0-2.8c0-0.4-0.1-0.5-0.5-0.5c-0.9,0-0.9,0-0.9-0.9v-0.5
		c0-1.1,0-1.1,1.1-1.2c0.3,0,0.4-0.1,0.4-0.4c0-0.7,0-1.4,0-2.1c0-0.5,0.2-0.6,0.6-0.6c0.6,0,1.1,0,1.7,0c0.6-0.1,0.7,0.2,0.7,0.7
		c0,0.6,0,1.2,0,1.7c0,0.5,0.1,0.7,0.6,0.6c0.6-0.1,1.3,0,1.9,0c0.4,0,0.5,0.1,0.5,0.5c0,0.5,0,1.1,0,1.6c0,0.4-0.1,0.5-0.5,0.5
		c-0.7,0-1.3,0-2,0c-0.3,0-0.5,0-0.5,0.5c0,1.6,0,3.2,0,4.8c0,0.9,0.4,1.3,1.4,1.2c0.2,0,0.4,0,0.6-0.1c1-0.3,1-0.3,1,0.8v0.1
		c0,1.3-0.2,1.6-1.5,1.7c-0.4,0.1-0.9,0.1-1.3,0.1c-1.6,0.1-3-1.1-3.1-2.7c0-0.1,0-0.3,0-0.4
		C2708.3-1633.3,2708.3-1634.2,2708.3-1635.1z"/>
	<path id="패스_13143" class="st3" d="M2718.4-1635.2c0,1.7,0,3.4,0,5.2c0,0.5-0.1,0.7-0.6,0.6c-0.6,0-1.2,0-1.8,0
		c-0.4,0-0.6-0.1-0.6-0.5c0-3.5,0-7,0-10.5c0-0.4,0.2-0.5,0.6-0.5c0.6,0,1.2,0,1.8,0c0.5,0,0.6,0.2,0.6,0.6
		C2718.4-1638.7,2718.4-1636.9,2718.4-1635.2z"/>
	<path id="패스_13151" class="st4" d="M2716.9-1646.1c1,0,1.9,0.8,1.9,1.8c0,0,0,0,0,0c0,1-0.8,1.8-1.8,1.9c0,0,0,0-0.1,0
		c-1,0-1.8-0.8-1.8-1.8C2715-1645.2,2715.9-1646.1,2716.9-1646.1C2716.9-1646.1,2716.9-1646.1,2716.9-1646.1z"/>
	<g id="그룹_132" transform="translate(12 50.01)">
		<path id="패스_13292" class="st5" d="M2675.4-1701.7h-1.6c-0.2,0-0.2,0.1-0.2,0.2c0.1,0.8,0.8,1.4,1.6,1.4
			c0.2,0,0.5-0.1,0.7-0.2c0.2-0.1,0.3-0.2,0.4-0.4c0-0.1,0.1-0.2,0.3-0.2c0,0,0,0,0,0h0.4c0.3,0,0.3,0,0.2,0.3
			c-0.3,0.6-0.8,1.1-1.5,1.2c-1,0.3-2-0.1-2.5-1c-0.5-1-0.5-2.1,0.1-3.1c0.5-0.8,1.5-1.2,2.4-0.9c0.9,0.2,1.5,0.9,1.6,1.8
			c0,0.2,0,0.4,0.1,0.7c0,0.2-0.1,0.3-0.3,0.2C2676.4-1701.7,2675.9-1701.7,2675.4-1701.7z M2674.9-1702.3h1.2c0.1,0,0.2,0,0.2-0.1
			c0-0.3-0.1-0.6-0.3-0.8c-0.3-0.4-0.9-0.5-1.3-0.4c-0.5,0.1-0.9,0.6-1,1.1c0,0.2,0,0.2,0.2,0.2L2674.9-1702.3z"/>
		<path id="패스_13289" class="st5" d="M2690.5-1701.7c0,0.8-0.3,1.5-1,2c-1,0.7-2.5,0.5-3.2-0.6c-0.2-0.3-0.4-0.7-0.4-1.1
			c-0.1-0.6,0-1.2,0.2-1.7c0.3-0.9,1.3-1.5,2.2-1.4C2689.7-1704.4,2690.5-1703.4,2690.5-1701.7z M2686.7-1701.9c0,0.2,0,0.4,0.1,0.6
			c0.1,0.6,0.6,1.1,1.2,1.2c0.7,0.1,1.3-0.3,1.5-1c0.2-0.5,0.2-1.1,0-1.6c-0.2-0.6-0.7-1-1.3-1c-0.6,0-1.2,0.4-1.4,1
			C2686.7-1702.4,2686.7-1702.2,2686.7-1701.9L2686.7-1701.9z"/>
		<path id="패스_13290" class="st5" d="M2692.4-1703.7c0.4-0.7,1.3-1,2-0.8c0.8,0.1,1.3,0.9,1.3,1.6c0,1.1,0,2.1,0,3.2
			c0,0.1-0.1,0.2-0.2,0.2c-0.7,0-0.7,0-0.7-0.6v-2.4c0-0.2,0-0.3-0.1-0.5c-0.1-0.5-0.5-0.8-1-0.8c-0.6-0.1-1.1,0.3-1.3,0.8
			c-0.1,0.2-0.1,0.4-0.1,0.6v2.6c0,0.2-0.1,0.2-0.2,0.2c-0.6,0-0.6,0-0.6-0.6v-4.2c0-0.2,0-0.2,0.2-0.2c0.6,0,0.6,0,0.6,0.6
			C2692.4-1703.8,2692.4-1703.7,2692.4-1703.7z"/>
		<path id="패스_13291" class="st5" d="M2679.1-1703.6c0.2-0.4,0.6-0.7,1.1-0.8c0.3-0.1,0.7-0.1,1,0c0.7,0.2,1.3,0.9,1.2,1.6
			c0,1.1,0,2.2,0,3.2c0,0.1-0.1,0.2-0.2,0.2c-0.7,0-0.7,0-0.7-0.6v-2.4c0-0.2,0-0.3-0.1-0.5c-0.1-0.4-0.4-0.7-0.8-0.7
			c-0.5-0.1-1,0.1-1.3,0.6c-0.2,0.3-0.2,0.6-0.2,1v2.5c0,0.2-0.1,0.2-0.2,0.2c-0.6,0-0.6,0-0.6-0.6v-4.2c0-0.2,0.1-0.2,0.2-0.2
			c0.6,0,0.6,0,0.6,0.5L2679.1-1703.6z"/>
		<path id="패스_13294" class="st5" d="M2665.2-1700.8h0.2c0.1,0,0.2,0,0.2,0.1c0.1,0.3,0.3,0.5,0.7,0.6c0.4,0.1,0.7,0.1,1.1-0.1
			c0.3-0.1,0.5-0.3,0.5-0.6c0-0.3-0.2-0.5-0.5-0.6c-0.4-0.1-0.8-0.2-1.2-0.3c-0.2-0.1-0.4-0.1-0.6-0.2c-0.6-0.3-0.9-1-0.6-1.7
			c0.1-0.2,0.3-0.4,0.5-0.5c0.8-0.5,1.8-0.5,2.6,0c0.3,0.2,0.5,0.5,0.6,0.8c0,0.1,0,0.2-0.2,0.2h-0.2c-0.2,0-0.5,0-0.5-0.3
			c0-0.2-0.2-0.2-0.3-0.3c-0.4-0.2-0.9-0.2-1.2,0c-0.2,0.1-0.4,0.3-0.4,0.6c0,0.2,0.2,0.5,0.4,0.5c0.4,0.1,0.7,0.2,1.1,0.3
			c0.2,0.1,0.5,0.1,0.7,0.2c0.6,0.2,1,1,0.7,1.6c-0.1,0.2-0.2,0.4-0.4,0.5c-0.5,0.4-1.1,0.5-1.7,0.5c-0.4,0-0.8-0.2-1.2-0.4
			c-0.3-0.2-0.5-0.5-0.6-0.8c-0.1-0.2,0-0.3,0.2-0.2L2665.2-1700.8z"/>
		<path id="패스_13297" class="st5" d="M2657.3-1702.9v-3.2c0-0.2,0.1-0.2,0.2-0.2c0.6,0,0.6,0,0.6,0.6v5.3c0,0.2,0.1,0.2,0.2,0.2
			h2.8c0.2,0,0.3,0.1,0.3,0.3c0,0.5,0,0.5-0.5,0.5h-3.5c-0.2,0-0.2-0.1-0.2-0.2L2657.3-1702.9z"/>
		<path id="패스_13293" class="st5" d="M2670.1-1702.1c0-0.5,0-0.9,0-1.4c0-0.2-0.1-0.3-0.3-0.3h-0.1c-0.4,0-0.3,0.1-0.3-0.3
			c0-0.4,0-0.4,0.4-0.4s0.4,0,0.4-0.4v-0.7c0-0.1,0.1-0.2,0.2-0.2c0.7,0,0.7,0,0.7,0.6c0,0.6,0,0.6,0.6,0.6c0.4,0,0.4,0,0.4,0.4
			c0,0.2-0.1,0.3-0.3,0.3c-0.2,0-0.5-0.1-0.6,0c-0.1,0.1-0.1,0.4-0.1,0.6v2.3c0,0.5,0.2,0.7,0.7,0.7c0.2,0,0.3,0,0.3,0.2
			c0,0.5,0,0.5-0.5,0.5c-1,0-1.4-0.3-1.4-1.3C2670.1-1701.2,2670.1-1701.6,2670.1-1702.1z"/>
		<path id="패스_13295" class="st5" d="M2662.7-1701.9v-2.3c0-0.2,0.1-0.2,0.2-0.2c0.6,0,0.6,0,0.6,0.6v4.1c0,0.2-0.1,0.3-0.3,0.3
			c-0.6,0-0.6,0-0.6-0.6V-1701.9z"/>
		<path id="패스_13296" class="st5" d="M2663.1-1705.2c-0.3,0-0.5-0.2-0.5-0.5c0-0.3,0.2-0.5,0.5-0.5c0.3,0,0.5,0.2,0.5,0.5
			C2663.6-1705.5,2663.4-1705.3,2663.1-1705.2z"/>
	</g>
</g>
</svg>
